<svg width="23" height="19" viewBox="0 0 23 19" fill="none" xmlns="http://www.w3.org/2000/svg">
<g clip-path="url(#clip0)">
<path d="M23.0008 2.24927C22.1399 2.63626 21.2268 2.88992 20.2919 3.00181C21.2746 2.40184 22.0099 1.45994 22.3615 0.350808C21.4362 0.912084 20.4232 1.30832 19.3665 1.52238C18.6589 0.741326 17.716 0.22146 16.686 0.0445131C15.6561 -0.132434 14.5975 0.043574 13.6766 0.544865C12.7558 1.04616 12.025 1.8443 11.5991 2.81382C11.1732 3.78333 11.0763 4.86924 11.3237 5.90081C9.44632 5.80338 7.61009 5.30529 5.93452 4.43896C4.25894 3.57262 2.78155 2.35744 1.59845 0.872457C0.989444 1.92906 0.801787 3.18267 1.07405 4.37559C1.34632 5.5685 2.05782 6.61007 3.06229 7.28618C2.3133 7.26222 1.58074 7.05701 0.925418 6.68756V6.73887C0.923647 7.84702 1.30001 8.92151 1.99035 9.77917C2.68069 10.6368 3.64228 11.2246 4.71122 11.4423C4.01737 11.635 3.28941 11.6642 2.58276 11.5278C2.87852 12.4845 3.46228 13.3226 4.25169 13.9241C5.04111 14.5255 5.99635 14.8599 6.9827 14.88C5.3126 16.2123 3.25033 16.9352 1.12733 16.9324C0.750226 16.9264 0.373799 16.8979 0 16.8469C2.15814 18.2564 4.66987 19.0045 7.23509 19.0019C15.9172 19.0019 20.6621 11.6903 20.6621 5.35351L20.6452 4.72924C21.5691 4.05138 22.3668 3.2116 23.0008 2.24927Z" fill="#E5E5E5"/>
</g>
<defs>
<clipPath id="clip0">
<rect width="23" height="19" fill="white"/>
</clipPath>
</defs>
</svg>
